<svg id="svg" version="1.1" xmlns="http://www.w3.org/2000/svg" xmlns:xlink="http://www.w3.org/1999/xlink" width="400" height="400" viewBox="0, 0, 400,400"><g id="svgg"><path id="path0" d="M101.651 1.162 C 43.559 14.282,19.331 84.613,57.834 128.355 L 61.070 132.031 48.113 132.031 L 35.156 132.031 35.156 225.781 L 35.156 319.531 81.250 319.531 C 106.602 319.531,127.344 319.689,127.344 319.881 C 127.344 320.073,114.896 338.091,99.681 359.920 L 72.018 399.609 86.179 399.823 C 93.968 399.940,100.707 399.896,101.155 399.724 C 101.603 399.552,114.095 382.009,128.915 360.738 L 155.859 322.066 156.062 361.033 L 156.264 400.000 168.367 400.000 L 180.469 400.000 180.469 361.227 L 180.469 322.455 207.481 361.227 L 234.494 400.000 249.324 400.000 C 260.989 400.000,264.026 399.792,263.552 399.023 C 263.220 398.486,250.699 380.469,235.726 358.984 L 208.503 319.922 255.020 319.720 L 301.536 319.519 301.744 300.158 L 301.953 280.797 333.203 290.268 L 364.453 299.739 364.652 225.915 C 364.762 185.312,364.691 151.930,364.494 151.734 C 364.217 151.456,306.826 168.477,302.539 170.108 C 301.774 170.399,301.562 166.312,301.563 151.255 L 301.563 132.031 292.541 132.031 L 283.519 132.031 285.978 128.457 C 298.096 110.844,300.006 85.087,290.586 66.294 C 272.408 30.028,227.294 19.484,195.478 44.066 L 190.034 48.273 188.181 44.275 C 173.608 12.831,135.049 -6.380,101.651 1.162 M130.078 25.472 C 170.214 35.167,184.883 85.867,156.012 115.103 C 124.082 147.436,70.050 129.311,64.054 84.255 C 59.188 47.691,93.948 16.744,130.078 25.472 M241.502 55.811 C 271.413 62.151,282.583 98.807,261.134 120.237 C 237.035 144.315,196.038 127.387,196.038 93.359 C 196.038 69.192,218.216 50.876,241.502 55.811 M277.344 225.781 L 277.344 295.313 168.359 295.313 L 59.375 295.313 59.375 225.781 L 59.375 156.250 168.359 156.250 L 277.344 156.250 277.344 225.781 M340.625 225.704 L 340.625 267.033 333.008 264.749 C 328.818 263.493,320.029 260.831,313.477 258.835 L 301.563 255.205 301.570 225.454 L 301.577 195.703 320.125 190.084 C 330.326 186.993,339.111 184.444,339.648 184.420 C 340.418 184.385,340.625 193.138,340.625 225.704 M118.750 225.391 L 118.750 237.500 167.969 237.500 L 217.188 237.500 217.188 225.391 L 217.188 213.281 167.969 213.281 L 118.750 213.281 118.750 225.391 " stroke="none" fill="#FFFFFF" fill-rule="evenodd"></path></g></svg>